<mxfile host="www.draw.io" modified="2019-11-13T10:34:22.483Z" agent="Mozilla/5.0 (Windows NT 10.0; Win64; x64) AppleWebKit/537.36 (KHTML, like Gecko) Chrome/78.0.3904.70 Safari/537.36" etag="Xln4NFCD2zkJFDWzmsnF" version="12.2.4" type="github" pages="1">
  <diagram id="vridho_IkfjbAIbAMsLd" name="第 1 页">
    <mxGraphModel dx="1422" dy="713" grid="1" gridSize="10" guides="1" tooltips="1" connect="1" arrows="1" fold="1" page="1" pageScale="1" pageWidth="827" pageHeight="1169" math="0" shadow="0">
      <root>
        <mxCell id="0"/>
        <mxCell id="1" parent="0"/>
        <mxCell id="TNPAEgGnEmfANEF-buTx-6" style="edgeStyle=orthogonalEdgeStyle;rounded=0;orthogonalLoop=1;jettySize=auto;html=1;exitX=0.25;exitY=0;exitDx=0;exitDy=0;entryX=0.25;entryY=1;entryDx=0;entryDy=0;" edge="1" parent="1" source="TNPAEgGnEmfANEF-buTx-1" target="TNPAEgGnEmfANEF-buTx-2">
          <mxGeometry relative="1" as="geometry"/>
        </mxCell>
        <mxCell id="TNPAEgGnEmfANEF-buTx-1" value="i = 0&amp;nbsp;" style="rounded=1;whiteSpace=wrap;html=1;" vertex="1" parent="1">
          <mxGeometry x="310" y="370" width="120" height="60" as="geometry"/>
        </mxCell>
        <mxCell id="TNPAEgGnEmfANEF-buTx-2" value="AtomicInteger" style="rounded=1;whiteSpace=wrap;html=1;arcSize=23;" vertex="1" parent="1">
          <mxGeometry x="310" y="230" width="120" height="60" as="geometry"/>
        </mxCell>
        <mxCell id="TNPAEgGnEmfANEF-buTx-7" style="edgeStyle=orthogonalEdgeStyle;rounded=0;orthogonalLoop=1;jettySize=auto;html=1;exitX=0.25;exitY=1;exitDx=0;exitDy=0;entryX=0.25;entryY=0;entryDx=0;entryDy=0;" edge="1" parent="1" source="TNPAEgGnEmfANEF-buTx-3" target="TNPAEgGnEmfANEF-buTx-2">
          <mxGeometry relative="1" as="geometry"/>
        </mxCell>
        <mxCell id="TNPAEgGnEmfANEF-buTx-9" value="i ++" style="text;html=1;resizable=0;points=[];align=center;verticalAlign=middle;labelBackgroundColor=#ffffff;" vertex="1" connectable="0" parent="TNPAEgGnEmfANEF-buTx-7">
          <mxGeometry x="-0.0889" y="-1" relative="1" as="geometry">
            <mxPoint as="offset"/>
          </mxGeometry>
        </mxCell>
        <mxCell id="TNPAEgGnEmfANEF-buTx-3" value="线程1" style="rounded=1;whiteSpace=wrap;html=1;" vertex="1" parent="1">
          <mxGeometry x="130" y="80" width="120" height="60" as="geometry"/>
        </mxCell>
        <mxCell id="TNPAEgGnEmfANEF-buTx-13" style="edgeStyle=orthogonalEdgeStyle;rounded=0;orthogonalLoop=1;jettySize=auto;html=1;exitX=0.5;exitY=1;exitDx=0;exitDy=0;" edge="1" parent="1" source="TNPAEgGnEmfANEF-buTx-4" target="TNPAEgGnEmfANEF-buTx-2">
          <mxGeometry relative="1" as="geometry"/>
        </mxCell>
        <mxCell id="TNPAEgGnEmfANEF-buTx-18" value="i++" style="text;html=1;resizable=0;points=[];align=center;verticalAlign=middle;labelBackgroundColor=#ffffff;" vertex="1" connectable="0" parent="TNPAEgGnEmfANEF-buTx-13">
          <mxGeometry x="0.2667" y="1" relative="1" as="geometry">
            <mxPoint as="offset"/>
          </mxGeometry>
        </mxCell>
        <mxCell id="TNPAEgGnEmfANEF-buTx-4" value="线程2" style="rounded=1;whiteSpace=wrap;html=1;" vertex="1" parent="1">
          <mxGeometry x="310" y="80" width="120" height="60" as="geometry"/>
        </mxCell>
        <mxCell id="TNPAEgGnEmfANEF-buTx-14" style="edgeStyle=orthogonalEdgeStyle;rounded=0;orthogonalLoop=1;jettySize=auto;html=1;exitX=0.5;exitY=1;exitDx=0;exitDy=0;entryX=0.75;entryY=0;entryDx=0;entryDy=0;" edge="1" parent="1" source="TNPAEgGnEmfANEF-buTx-5" target="TNPAEgGnEmfANEF-buTx-2">
          <mxGeometry relative="1" as="geometry"/>
        </mxCell>
        <mxCell id="TNPAEgGnEmfANEF-buTx-16" value="i++" style="text;html=1;resizable=0;points=[];align=center;verticalAlign=middle;labelBackgroundColor=#ffffff;" vertex="1" connectable="0" parent="TNPAEgGnEmfANEF-buTx-14">
          <mxGeometry x="0.1385" y="-1" relative="1" as="geometry">
            <mxPoint as="offset"/>
          </mxGeometry>
        </mxCell>
        <mxCell id="TNPAEgGnEmfANEF-buTx-5" value="线程3" style="rounded=1;whiteSpace=wrap;html=1;" vertex="1" parent="1">
          <mxGeometry x="510" y="80" width="120" height="60" as="geometry"/>
        </mxCell>
        <mxCell id="TNPAEgGnEmfANEF-buTx-15" style="edgeStyle=orthogonalEdgeStyle;rounded=0;orthogonalLoop=1;jettySize=auto;html=1;exitX=0.5;exitY=1;exitDx=0;exitDy=0;entryX=1;entryY=0.25;entryDx=0;entryDy=0;" edge="1" parent="1" source="TNPAEgGnEmfANEF-buTx-8" target="TNPAEgGnEmfANEF-buTx-2">
          <mxGeometry relative="1" as="geometry"/>
        </mxCell>
        <mxCell id="TNPAEgGnEmfANEF-buTx-17" value="i++" style="text;html=1;resizable=0;points=[];align=center;verticalAlign=middle;labelBackgroundColor=#ffffff;" vertex="1" connectable="0" parent="TNPAEgGnEmfANEF-buTx-15">
          <mxGeometry x="0.4222" y="2" relative="1" as="geometry">
            <mxPoint as="offset"/>
          </mxGeometry>
        </mxCell>
        <mxCell id="TNPAEgGnEmfANEF-buTx-8" value="线程3" style="rounded=1;whiteSpace=wrap;html=1;" vertex="1" parent="1">
          <mxGeometry x="670" y="80" width="120" height="60" as="geometry"/>
        </mxCell>
        <mxCell id="TNPAEgGnEmfANEF-buTx-10" value="判断是否是0，&lt;br&gt;如果是，没有人修改，执行i++，&lt;br&gt;如果不是，说明有人修改过了，再次获取i是否是1，如果是，执行i++，反之则一样" style="text;html=1;strokeColor=none;fillColor=none;align=left;verticalAlign=middle;whiteSpace=wrap;rounded=0;" vertex="1" parent="1">
          <mxGeometry x="70" y="210" width="220" height="150" as="geometry"/>
        </mxCell>
      </root>
    </mxGraphModel>
  </diagram>
</mxfile>
